<svg id="visual" viewBox="0 0 960 300" width="960" height="300" xmlns="http://www.w3.org/2000/svg" xmlns:xlink="http://www.w3.org/1999/xlink" version="1.1"><rect x="0" y="0" width="960" height="300" fill="#202731"></rect><path d="M0 169L32 174.2C64 179.3 128 189.7 192 191.5C256 193.3 320 186.7 384 189.2C448 191.7 512 203.3 576 206.8C640 210.3 704 205.7 768 209.7C832 213.7 896 226.3 928 232.7L960 239L960 0L928 0C896 0 832 0 768 0C704 0 640 0 576 0C512 0 448 0 384 0C320 0 256 0 192 0C128 0 64 0 32 0L0 0Z" fill="#3c31dd"></path><path d="M0 165L32 157.2C64 149.3 128 133.7 192 139.5C256 145.3 320 172.7 384 182.8C448 193 512 186 576 173C640 160 704 141 768 142.7C832 144.3 896 166.7 928 177.8L960 189L960 0L928 0C896 0 832 0 768 0C704 0 640 0 576 0C512 0 448 0 384 0C320 0 256 0 192 0C128 0 64 0 32 0L0 0Z" fill="#af00ad"></path><path d="M0 156L32 146.7C64 137.3 128 118.7 192 116C256 113.3 320 126.7 384 126C448 125.3 512 110.7 576 108.2C640 105.7 704 115.3 768 117.3C832 119.3 896 113.7 928 110.8L960 108L960 0L928 0C896 0 832 0 768 0C704 0 640 0 576 0C512 0 448 0 384 0C320 0 256 0 192 0C128 0 64 0 32 0L0 0Z" fill="#d50080"></path><path d="M0 102L32 104.2C64 106.3 128 110.7 192 112.3C256 114 320 113 384 105.7C448 98.3 512 84.7 576 77C640 69.3 704 67.7 768 71.7C832 75.7 896 85.3 928 90.2L960 95L960 0L928 0C896 0 832 0 768 0C704 0 640 0 576 0C512 0 448 0 384 0C320 0 256 0 192 0C128 0 64 0 32 0L0 0Z" fill="#e11858"></path><path d="M0 60L32 55.8C64 51.7 128 43.3 192 43.3C256 43.3 320 51.7 384 55.7C448 59.7 512 59.3 576 55C640 50.7 704 42.3 768 43.2C832 44 896 54 928 59L960 64L960 0L928 0C896 0 832 0 768 0C704 0 640 0 576 0C512 0 448 0 384 0C320 0 256 0 192 0C128 0 64 0 32 0L0 0Z" fill="#dd3f31"></path></svg>